<?xml version="1.0" encoding="UTF-8"?>
<svg id="Layer_1" data-name="Layer 1" xmlns="http://www.w3.org/2000/svg" xmlns:xlink="http://www.w3.org/1999/xlink" viewBox="0 0 489.35 188.61">
  <defs>
    <style>
      .cls-1 {
        fill: url(#linear-gradient);
      }

      .cls-1, .cls-2 {
        stroke-width: 0px;
      }

      .cls-3 {
        fill: none;
        stroke: #000;
        stroke-miterlimit: 10;
      }

      .cls-2 {
        fill: #4682b4;
      }
    </style>
    <linearGradient id="linear-gradient" x1="0" y1="76.78" x2="98.6" y2="76.78" gradientUnits="userSpaceOnUse">
      <stop offset="0" stop-color="#3d1c5c"/>
      <stop offset="1" stop-color="#4682b4"/>
    </linearGradient>
  </defs>
  <polygon class="cls-1" points="98.6 145.48 62.4 145.48 30.8 98.36 30.8 145.48 0 145.48 0 8.08 30.8 8.08 30.8 92.02 62.2 48.28 96.4 48.28 76.15 74.48 61.09 93.97 98.6 145.48"/>
  <polygon class="cls-2" points="176.25 48.28 176.25 74.48 154.25 74.48 154.25 145.48 123.45 145.48 123.45 74.48 78.59 74.48 98.84 48.28 123.45 48.28 123.45 8.08 154.25 8.08 154.25 48.28 176.25 48.28"/>
  <g>
    <path class="cls-2" d="M273.12,69.54c-4.29-7.37-10.11-13.13-17.48-17.29-7.37-4.15-15.94-6.23-25.72-6.23s-18.83,2.21-26.73,6.63c-7.91,4.43-14.14,10.49-18.69,18.19-4.55,7.71-6.83,16.38-6.83,26.03s2.34,18.75,7.03,26.52,11.12,13.84,19.29,18.19c8.17,4.35,17.55,6.53,28.14,6.53,8.3,0,15.87-1.38,22.71-4.12,6.83-2.74,12.66-7,17.48-12.76l-17.08-16.88c-2.95,3.35-6.37,5.86-10.25,7.54-3.89,1.67-8.17,2.51-12.86,2.51-5.23,0-9.75-1.11-13.57-3.32-3.81-2.21-6.76-5.39-8.84-9.54-.65-1.29-1.19-2.66-1.64-4.09l69.87-.34c.67-2.41,1.1-4.58,1.3-6.53.2-1.94.3-3.85.3-5.72,0-9.52-2.14-17.95-6.43-25.32ZM208.06,86.14c.41-1.31.89-2.56,1.46-3.74,1.94-4.02,4.69-7.17,8.24-9.45,3.55-2.27,7.74-3.41,12.56-3.41,4.42,0,8.2,1,11.35,3.01,3.15,2.01,5.53,4.86,7.14,8.54.64,1.46,1.16,3.06,1.56,4.8l-42.31.25Z"/>
    <path class="cls-2" d="M360.54,112.14l19.89,19.69c-5.22,5.36-11.02,9.42-17.38,12.16-6.36,2.74-13.56,4.12-21.6,4.12-10.19,0-19.36-2.21-27.53-6.63-8.18-4.42-14.57-10.52-19.2-18.29-4.62-7.77-6.93-16.48-6.93-26.12s2.34-18.52,7.04-26.23c4.68-7.7,11.11-13.76,19.29-18.19,8.17-4.42,17.35-6.63,27.53-6.63,7.77,0,14.83,1.31,21.2,3.92,6.36,2.61,12.02,6.47,16.98,11.56l-19.89,20.09c-2.28-2.54-4.93-4.42-7.94-5.62-3.02-1.21-6.47-1.81-10.35-1.81-4.29,0-8.14.97-11.56,2.91-3.41,1.94-6.09,4.62-8.03,8.04-1.95,3.42-2.92,7.33-2.92,11.76s.97,8.57,2.92,12.05c1.94,3.49,4.65,6.2,8.13,8.14,3.49,1.95,7.3,2.92,11.46,2.92s7.6-.67,10.75-2.01c3.15-1.34,5.86-3.29,8.14-5.83Z"/>
    <path class="cls-2" d="M489.35,83.4v62.5h-30.95v-55.67c0-4.95-1.61-9-4.82-12.15-3.22-3.15-7.24-4.73-12.06-4.73-3.21,0-6.1.71-8.64,2.11-2.55,1.41-4.56,3.39-6.03,5.93-1.47,2.55-2.21,5.5-2.21,8.84v55.67h-30.95V0h30.95v55.63c1.99-1.79,4.2-3.35,6.63-4.68,5.76-3.15,12.33-4.73,19.7-4.73s14.33,1.58,20.09,4.73,10.25,7.5,13.47,13.06c3.21,5.56,4.82,12.03,4.82,19.39Z"/>
  </g>
  <line class="cls-3" x1="229.71" y1="188.61" x2="229.71" y2="188.39"/>
</svg>